Cutive-Mono-Regular.ufo
<glyph name="exclam" format="1">
  <advance width="1240"/>
  <unicode hex="0021"/>
  <outline>
    <contour>
      <point x="621" y="-9" type="curve" smooth="yes"/>
      <point x="564" y="-9"/>
      <point x="519" y="36"/>
      <point x="519" y="93" type="curve" smooth="yes"/>
      <point x="519" y="150"/>
      <point x="564" y="193"/>
      <point x="621" y="193" type="curve" smooth="yes"/>
      <point x="678" y="193"/>
      <point x="722" y="150"/>
      <point x="722" y="93" type="curve" smooth="yes"/>
      <point x="722" y="36"/>
      <point x="678" y="-9"/>
    </contour>
    <contour>
      <point x="686" y="1103" type="curve" smooth="yes"/>
      <point x="686" y="872"/>
      <point x="646" y="626"/>
      <point x="646" y="380" type="curve" smooth="yes"/>
      <point x="646" y="353"/>
      <point x="638" y="344"/>
      <point x="622" y="344" type="curve" smooth="yes"/>
      <point x="606" y="344"/>
      <point x="598" y="354"/>
      <point x="598" y="380" type="curve" smooth="yes"/>
      <point x="598" y="628"/>
      <point x="556" y="869"/>
      <point x="556" y="1103" type="curve" smooth="yes"/>
      <point x="556" y="1170"/>
      <point x="584" y="1187"/>
      <point x="622" y="1187" type="curve" smooth="yes"/>
      <point x="658" y="1187"/>
      <point x="686" y="1170"/>
    </contour>
  </outline>
</glyph>
<glyph name="asterisk" format="1">
  <advance width="1240"/>
  <unicode hex="002a"/>
  <outline>
    <contour>
      <point x="796" y="1113" type="curve" smooth="yes"/>
      <point x="834" y="1113"/>
      <point x="877" y="1084"/>
      <point x="877" y="1048" type="curve" smooth="yes"/>
      <point x="877" y="1042"/>
      <point x="876" y="1035"/>
      <point x="872" y="1027" type="curve" smooth="no"/>
      <point x="753" y="872" type="line" smooth="yes"/>
      <point x="743" y="858"/>
      <point x="731" y="851"/>
      <point x="717" y="851" type="curve" smooth="yes"/>
      <point x="694" y="851"/>
      <point x="674" y="868"/>
      <point x="674" y="891" type="curve" smooth="yes"/>
      <point x="674" y="898"/>
      <point x="676" y="905"/>
      <point x="678" y="912" type="curve" smooth="yes"/>
      <point x="756" y="1092" type="line" smooth="yes"/>
      <point x="763" y="1106"/>
      <point x="777" y="1113"/>
    </contour>
    <contour>
      <point x="518" y="470" type="curve" smooth="yes"/>
      <point x="480" y="470"/>
      <point x="437" y="498"/>
      <point x="437" y="536" type="curve" smooth="yes"/>
      <point x="437" y="542"/>
      <point x="439" y="548"/>
      <point x="443" y="556" type="curve" smooth="no"/>
      <point x="562" y="712" type="line" smooth="yes"/>
      <point x="571" y="725"/>
      <point x="580" y="731"/>
      <point x="597" y="731" type="curve" smooth="yes"/>
      <point x="620" y="731"/>
      <point x="641" y="715"/>
      <point x="641" y="692" type="curve" smooth="yes"/>
      <point x="641" y="684"/>
      <point x="639" y="678"/>
      <point x="637" y="672" type="curve" smooth="yes"/>
      <point x="559" y="492" type="line" smooth="no"/>
      <point x="551" y="478"/>
      <point x="537" y="470"/>
    </contour>
    <contour>
      <point x="642" y="891" type="curve" smooth="yes"/>
      <point x="642" y="868"/>
      <point x="621" y="851"/>
      <point x="598" y="851" type="curve" smooth="yes"/>
      <point x="585" y="851"/>
      <point x="573" y="858"/>
      <point x="563" y="872" type="curve" smooth="yes"/>
      <point x="444" y="1027" type="line" smooth="no"/>
      <point x="440" y="1035"/>
      <point x="438" y="1042"/>
      <point x="438" y="1048" type="curve" smooth="yes"/>
      <point x="438" y="1085"/>
      <point x="481" y="1113"/>
      <point x="519" y="1113" type="curve" smooth="yes"/>
      <point x="538" y="1113"/>
      <point x="551" y="1106"/>
      <point x="559" y="1092" type="curve" smooth="no"/>
      <point x="637" y="912" type="line" smooth="yes"/>
      <point x="640" y="905"/>
      <point x="642" y="898"/>
    </contour>
    <contour>
      <point x="879" y="536" type="curve" smooth="yes"/>
      <point x="879" y="499"/>
      <point x="835" y="470"/>
      <point x="798" y="470" type="curve" smooth="yes"/>
      <point x="779" y="470"/>
      <point x="764" y="478"/>
      <point x="758" y="492" type="curve" smooth="yes"/>
      <point x="680" y="672" type="line" smooth="yes"/>
      <point x="678" y="678"/>
      <point x="675" y="684"/>
      <point x="675" y="692" type="curve" smooth="yes"/>
      <point x="675" y="715"/>
      <point x="695" y="731"/>
      <point x="718" y="731" type="curve" smooth="yes"/>
      <point x="735" y="731"/>
      <point x="745" y="725"/>
      <point x="755" y="712" type="curve" smooth="yes"/>
      <point x="873" y="556" type="line" smooth="no"/>
      <point x="877" y="548"/>
      <point x="879" y="542"/>
    </contour>
    <contour>
      <point x="342" y="727" type="line" smooth="no"/>
      <point x="309" y="727"/>
      <point x="292" y="760"/>
      <point x="292" y="791" type="curve" smooth="yes"/>
      <point x="292" y="823"/>
      <point x="309" y="856"/>
      <point x="342" y="856" type="curve" smooth="no"/>
      <point x="540" y="834" type="line" smooth="yes"/>
      <point x="566" y="831"/>
      <point x="581" y="815"/>
      <point x="581" y="791" type="curve" smooth="yes"/>
      <point x="581" y="768"/>
      <point x="566" y="752"/>
      <point x="540" y="750" type="curve" smooth="no"/>
    </contour>
    <contour>
      <point x="975" y="856" type="line" smooth="no"/>
      <point x="1008" y="856"/>
      <point x="1024" y="823"/>
      <point x="1024" y="791" type="curve" smooth="yes"/>
      <point x="1024" y="760"/>
      <point x="1008" y="727"/>
      <point x="975" y="727" type="curve" smooth="no"/>
      <point x="777" y="750" type="line" smooth="no"/>
      <point x="751" y="752"/>
      <point x="736" y="768"/>
      <point x="736" y="791" type="curve" smooth="yes"/>
      <point x="736" y="815"/>
      <point x="751" y="831"/>
      <point x="777" y="834" type="curve" smooth="yes"/>
    </contour>
  </outline>
</glyph>
<glyph name="two" format="1">
  <advance width="1240"/>
  <unicode hex="0032"/>
  <outline>
    <contour>
      <point x="612" y="1187" type="curve" smooth="yes"/>
      <point x="808" y="1187"/>
      <point x="945" y="1101"/>
      <point x="945" y="914" type="curve" smooth="yes"/>
      <point x="945" y="611"/>
      <point x="471" y="376"/>
      <point x="367" y="82" type="curve" smooth="no"/>
      <point x="863" y="82" type="line" smooth="no"/>
      <point x="875" y="264" type="line" smooth="yes"/>
      <point x="877" y="292"/>
      <point x="903" y="309"/>
      <point x="927" y="309" type="curve" smooth="yes"/>
      <point x="950" y="309"/>
      <point x="971" y="294"/>
      <point x="971" y="258" type="curve" smooth="yes"/>
      <point x="971" y="50" type="line" smooth="yes"/>
      <point x="971" y="19"/>
      <point x="948" y="0"/>
      <point x="917" y="0" type="curve" smooth="yes"/>
      <point x="279" y="0" type="line" smooth="no"/>
      <point x="276" y="12"/>
      <point x="272" y="22"/>
      <point x="272" y="37" type="curve" smooth="yes"/>
      <point x="272" y="340"/>
      <point x="849" y="641"/>
      <point x="849" y="907" type="curve" smooth="yes"/>
      <point x="849" y="1056"/>
      <point x="755" y="1101"/>
      <point x="597" y="1101" type="curve" smooth="yes"/>
      <point x="530" y="1101"/>
      <point x="461" y="1090"/>
      <point x="390" y="1055" type="curve" smooth="no"/>
      <point x="375" y="933"/>
      <point x="372" y="858"/>
      <point x="324" y="858" type="curve" smooth="yes"/>
      <point x="283" y="858"/>
      <point x="264" y="893"/>
      <point x="264" y="938" type="curve" smooth="yes"/>
      <point x="264" y="1118"/>
      <point x="405" y="1187"/>
    </contour>
  </outline>
</glyph>
<glyph name="three" format="1">
  <advance width="1240"/>
  <unicode hex="0033"/>
  <outline>
    <contour>
      <point x="503" y="601" type="curve" smooth="yes"/>
      <point x="480" y="601"/>
      <point x="465" y="613"/>
      <point x="465" y="638" type="curve" smooth="yes"/>
      <point x="465" y="650"/>
      <point x="474" y="666"/>
      <point x="496" y="679" type="curve" smooth="yes"/>
      <point x="655" y="777"/>
      <point x="787" y="834"/>
      <point x="787" y="959" type="curve" smooth="yes"/>
      <point x="787" y="1032"/>
      <point x="735" y="1102"/>
      <point x="613" y="1102" type="curve" smooth="yes"/>
      <point x="390" y="1102"/>
      <point x="450" y="1004"/>
      <point x="348" y="1004" type="curve" smooth="yes"/>
      <point x="321" y="1004"/>
      <point x="307" y="1022"/>
      <point x="307" y="1037" type="curve" smooth="yes"/>
      <point x="307" y="1133"/>
      <point x="512" y="1187"/>
      <point x="615" y="1187" type="curve" smooth="yes"/>
      <point x="765" y="1187"/>
      <point x="883" y="1104"/>
      <point x="883" y="959" type="curve" smooth="yes"/>
      <point x="883" y="799"/>
      <point x="697" y="710"/>
      <point x="625" y="675" type="curve" smooth="no"/>
      <point x="835" y="675"/>
      <point x="950" y="544"/>
      <point x="950" y="360" type="curve" smooth="yes"/>
      <point x="950" y="139"/>
      <point x="771" y="-17"/>
      <point x="544" y="-17" type="curve" smooth="yes"/>
      <point x="408" y="-17"/>
      <point x="263" y="46"/>
      <point x="263" y="108" type="curve" smooth="yes"/>
      <point x="263" y="119"/>
      <point x="278" y="141"/>
      <point x="301" y="141" type="curve" smooth="yes"/>
      <point x="388" y="141"/>
      <point x="378" y="69"/>
      <point x="547" y="69" type="curve" smooth="yes"/>
      <point x="736" y="69"/>
      <point x="854" y="195"/>
      <point x="854" y="366" type="curve" smooth="yes"/>
      <point x="854" y="517"/>
      <point x="755" y="609"/>
      <point x="602" y="609" type="curve" smooth="yes"/>
      <point x="573" y="609"/>
      <point x="515" y="601"/>
    </contour>
  </outline>
</glyph>
<glyph name="C" format="1">
  <advance width="1240"/>
  <unicode hex="0043"/>
  <outline>
    <contour>
      <point x="1145" y="336" type="curve" smooth="yes"/>
      <point x="1108" y="168"/>
      <point x="959" y="-17"/>
      <point x="669" y="-17" type="curve" smooth="yes"/>
      <point x="361" y="-17"/>
      <point x="132" y="225"/>
      <point x="132" y="607" type="curve" smooth="yes"/>
      <point x="132" y="954"/>
      <point x="360" y="1187"/>
      <point x="668" y="1187" type="curve" smooth="yes"/>
      <point x="827" y="1187"/>
      <point x="968" y="1113"/>
      <point x="1022" y="1015" type="curve" smooth="no"/>
      <point x="1022" y="1121" type="line" smooth="yes"/>
      <point x="1022" y="1154"/>
      <point x="1047" y="1171"/>
      <point x="1071" y="1171" type="curve" smooth="yes"/>
      <point x="1096" y="1171"/>
      <point x="1120" y="1154"/>
      <point x="1120" y="1120" type="curve" smooth="yes"/>
      <point x="1120" y="827" type="line" smooth="yes"/>
      <point x="1120" y="795"/>
      <point x="1097" y="780"/>
      <point x="1074" y="780" type="curve" smooth="yes"/>
      <point x="1050" y="780"/>
      <point x="1031" y="797"/>
      <point x="1026" y="827" type="curve" smooth="yes"/>
      <point x="995" y="991"/>
      <point x="850" y="1101"/>
      <point x="671" y="1101" type="curve" smooth="yes"/>
      <point x="396" y="1101"/>
      <point x="228" y="890"/>
      <point x="228" y="600" type="curve" smooth="yes"/>
      <point x="228" y="263"/>
      <point x="435" y="69"/>
      <point x="670" y="69" type="curve" smooth="yes"/>
      <point x="863" y="69"/>
      <point x="995" y="182"/>
      <point x="1049" y="359" type="curve" smooth="yes"/>
      <point x="1056" y="379"/>
      <point x="1072" y="387"/>
      <point x="1089" y="387" type="curve" smooth="yes"/>
      <point x="1116" y="387"/>
      <point x="1146" y="367"/>
      <point x="1146" y="343" type="curve" smooth="yes"/>
      <point x="1146" y="341"/>
      <point x="1146" y="338"/>
    </contour>
  </outline>
</glyph>
<glyph name="J" format="1">
  <advance width="1240"/>
  <unicode hex="004a"/>
  <outline>
    <contour>
      <point x="855" y="317" type="line" smooth="yes"/>
      <point x="855" y="84"/>
      <point x="644" y="-13"/>
      <point x="451" y="-13" type="curve" smooth="yes"/>
      <point x="288" y="-13"/>
      <point x="138" y="56"/>
      <point x="138" y="171" type="curve" smooth="yes"/>
      <point x="138" y="283" type="line" smooth="yes"/>
      <point x="138" y="312"/>
      <point x="163" y="328"/>
      <point x="187" y="328" type="curve" smooth="yes"/>
      <point x="211" y="328"/>
      <point x="234" y="313"/>
      <point x="234" y="283" type="curve" smooth="yes"/>
      <point x="234" y="182" type="line" smooth="yes"/>
      <point x="234" y="114"/>
      <point x="342" y="68"/>
      <point x="460" y="68" type="curve" smooth="yes"/>
      <point x="602" y="68"/>
      <point x="759" y="135"/>
      <point x="759" y="314" type="curve" smooth="yes"/>
      <point x="759" y="1085" type="line" smooth="no"/>
      <point x="409" y="1085" type="line" smooth="yes"/>
      <point x="377" y="1085"/>
      <point x="361" y="1106"/>
      <point x="361" y="1127" type="curve" smooth="yes"/>
      <point x="361" y="1149"/>
      <point x="377" y="1171"/>
      <point x="410" y="1171" type="curve" smooth="yes"/>
      <point x="1025" y="1171" type="line" smooth="yes"/>
      <point x="1058" y="1171"/>
      <point x="1075" y="1150"/>
      <point x="1075" y="1128" type="curve" smooth="yes"/>
      <point x="1075" y="1107"/>
      <point x="1059" y="1085"/>
      <point x="1026" y="1085" type="curve" smooth="yes"/>
      <point x="855" y="1085" type="line" smooth="no"/>
    </contour>
  </outline>
</glyph>
<glyph name="Y" format="1">
  <advance width="1240"/>
  <unicode hex="0059"/>
  <outline>
    <contour>
      <point x="1065" y="1171" type="line" smooth="yes"/>
      <point x="1099" y="1171"/>
      <point x="1116" y="1151"/>
      <point x="1116" y="1132" type="curve" smooth="yes"/>
      <point x="1116" y="1113"/>
      <point x="1100" y="1095"/>
      <point x="1067" y="1095" type="curve" smooth="yes"/>
      <point x="1012" y="1095" type="line" smooth="no"/>
      <point x="689" y="548" type="line" smooth="no"/>
      <point x="689" y="86" type="line" smooth="no"/>
      <point x="921" y="86" type="line" smooth="yes"/>
      <point x="953" y="86"/>
      <point x="969" y="65"/>
      <point x="969" y="44" type="curve" smooth="yes"/>
      <point x="969" y="22"/>
      <point x="952" y="0"/>
      <point x="919" y="0" type="curve" smooth="yes"/>
      <point x="334" y="0" type="line" smooth="yes"/>
      <point x="300" y="0"/>
      <point x="282" y="22"/>
      <point x="282" y="44" type="curve" smooth="yes"/>
      <point x="282" y="65"/>
      <point x="299" y="86"/>
      <point x="332" y="86" type="curve" smooth="yes"/>
      <point x="593" y="86" type="line" smooth="no"/>
      <point x="593" y="553" type="line" smooth="no"/>
      <point x="258" y="1095" type="line" smooth="no"/>
      <point x="174" y="1095" type="line" smooth="yes"/>
      <point x="141" y="1095"/>
      <point x="124" y="1114"/>
      <point x="124" y="1133" type="curve" smooth="yes"/>
      <point x="124" y="1152"/>
      <point x="142" y="1171"/>
      <point x="175" y="1171" type="curve" smooth="yes"/>
      <point x="505" y="1171" type="line" smooth="yes"/>
      <point x="539" y="1171"/>
      <point x="556" y="1152"/>
      <point x="556" y="1133" type="curve" smooth="yes"/>
      <point x="556" y="1114"/>
      <point x="539" y="1095"/>
      <point x="506" y="1095" type="curve" smooth="yes"/>
      <point x="370" y="1095" type="line" smooth="no"/>
      <point x="646" y="633" type="line" smooth="no"/>
      <point x="914" y="1095" type="line" smooth="no"/>
      <point x="803" y="1095" type="line" smooth="yes"/>
      <point x="770" y="1095"/>
      <point x="753" y="1114"/>
      <point x="753" y="1133" type="curve" smooth="yes"/>
      <point x="753" y="1152"/>
      <point x="771" y="1171"/>
      <point x="804" y="1171" type="curve" smooth="yes"/>
    </contour>
  </outline>
</glyph>
<glyph name="bracketright" format="1">
  <advance width="1240"/>
  <unicode hex="005d"/>
  <outline>
    <contour>
      <point x="452" y="-148" type="line" smooth="yes"/>
      <point x="433" y="-148"/>
      <point x="424" y="-127"/>
      <point x="424" y="-106" type="curve" smooth="yes"/>
      <point x="424" y="-85"/>
      <point x="433" y="-64"/>
      <point x="452" y="-64" type="curve" smooth="yes"/>
      <point x="643" y="-64" type="line" smooth="no"/>
      <point x="643" y="1247" type="line" smooth="no"/>
      <point x="452" y="1247" type="line" smooth="yes"/>
      <point x="433" y="1247"/>
      <point x="424" y="1268"/>
      <point x="424" y="1289" type="curve" smooth="yes"/>
      <point x="424" y="1310"/>
      <point x="433" y="1331"/>
      <point x="452" y="1331" type="curve" smooth="yes"/>
      <point x="684" y="1331" type="line" smooth="yes"/>
      <point x="720" y="1331"/>
      <point x="739" y="1308"/>
      <point x="739" y="1273" type="curve" smooth="yes"/>
      <point x="739" y="-87" type="line" smooth="yes"/>
      <point x="739" y="-125"/>
      <point x="722" y="-148"/>
      <point x="684" y="-148" type="curve" smooth="yes"/>
    </contour>
  </outline>
</glyph>
<glyph name="grave" format="1">
  <advance width="1240"/>
  <unicode hex="0060"/>
  <outline>
    <contour>
      <point x="410" y="1010" type="curve" smooth="yes"/>
      <point x="410" y="993"/>
      <point x="395" y="975"/>
      <point x="377" y="975" type="curve" smooth="yes"/>
      <point x="372" y="975"/>
      <point x="368" y="976"/>
      <point x="365" y="979" type="curve" smooth="no"/>
      <point x="254" y="1043"/>
      <point x="132" y="1122"/>
      <point x="25" y="1189" type="curve" smooth="yes"/>
      <point x="13" y="1197"/>
      <point x="6" y="1208"/>
      <point x="6" y="1220" type="curve" smooth="yes"/>
      <point x="6" y="1248"/>
      <point x="35" y="1277"/>
      <point x="64" y="1277" type="curve" smooth="yes"/>
      <point x="75" y="1277"/>
      <point x="84" y="1274"/>
      <point x="92" y="1267" type="curve" smooth="yes"/>
      <point x="185" y="1187"/>
      <point x="298" y="1099"/>
      <point x="400" y="1031" type="curve" smooth="yes"/>
      <point x="408" y="1026"/>
      <point x="410" y="1020"/>
    </contour>
  </outline>
</glyph>
<glyph name="d" format="1">
  <advance width="1240"/>
  <unicode hex="0064"/>
  <outline>
    <contour>
      <point x="867" y="47" type="curve" smooth="yes"/>
      <point x="864" y="107" type="line" smooth="no"/>
      <point x="805" y="36"/>
      <point x="698" y="-17"/>
      <point x="571" y="-17" type="curve" smooth="yes"/>
      <point x="336" y="-17"/>
      <point x="193" y="156"/>
      <point x="193" y="398" type="curve" smooth="yes"/>
      <point x="193" y="636"/>
      <point x="337" y="813"/>
      <point x="571" y="813" type="curve" smooth="yes"/>
      <point x="700" y="813"/>
      <point x="781" y="771"/>
      <point x="855" y="707" type="curve" smooth="no"/>
      <point x="855" y="1091" type="line" smooth="no"/>
      <point x="727" y="1083" type="line" smooth="yes"/>
      <point x="720" y="1082"/>
      <point x="713" y="1080"/>
      <point x="707" y="1080" type="curve" smooth="yes"/>
      <point x="683" y="1080"/>
      <point x="668" y="1098"/>
      <point x="668" y="1118" type="curve" smooth="yes"/>
      <point x="668" y="1134"/>
      <point x="677" y="1154"/>
      <point x="701" y="1159" type="curve" smooth="no"/>
      <point x="890" y="1178" type="line" smooth="yes"/>
      <point x="898" y="1179"/>
      <point x="904" y="1180"/>
      <point x="910" y="1180" type="curve" smooth="yes"/>
      <point x="939" y="1180"/>
      <point x="951" y="1164"/>
      <point x="951" y="1141" type="curve" smooth="yes"/>
      <point x="951" y="85" type="line" smooth="no"/>
      <point x="1099" y="96" type="line" smooth="no"/>
      <point x="1105" y="96" type="line" smooth="yes"/>
      <point x="1133" y="96"/>
      <point x="1145" y="79"/>
      <point x="1145" y="61" type="curve" smooth="yes"/>
      <point x="1145" y="42"/>
      <point x="1132" y="22"/>
      <point x="1107" y="17" type="curve" smooth="no"/>
      <point x="921" y="-3" type="line" smooth="no"/>
      <point x="914" y="-3" type="line" smooth="yes"/>
      <point x="888" y="-3"/>
      <point x="869" y="13"/>
    </contour>
    <contour>
      <point x="289" y="398" type="curve" smooth="yes"/>
      <point x="289" y="219"/>
      <point x="387" y="65"/>
      <point x="573" y="65" type="curve" smooth="yes"/>
      <point x="708" y="65"/>
      <point x="797" y="127"/>
      <point x="855" y="210" type="curve" smooth="no"/>
      <point x="855" y="602" type="line" smooth="no"/>
      <point x="792" y="681"/>
      <point x="704" y="731"/>
      <point x="577" y="731" type="curve" smooth="yes"/>
      <point x="386" y="731"/>
      <point x="289" y="575"/>
    </contour>
  </outline>
</glyph>
<glyph name="s" format="1">
  <advance width="1240"/>
  <unicode hex="0073"/>
  <outline>
    <contour>
      <point x="609" y="813" type="curve" smooth="yes"/>
      <point x="724" y="813"/>
      <point x="847" y="774"/>
      <point x="888" y="721" type="curve" smooth="no"/>
      <point x="888" y="758" type="line" smooth="no"/>
      <point x="887" y="791"/>
      <point x="909" y="808"/>
      <point x="930" y="808" type="curve" smooth="yes"/>
      <point x="951" y="808"/>
      <point x="971" y="792"/>
      <point x="971" y="759" type="curve" smooth="yes"/>
      <point x="969" y="558" type="line" smooth="no"/>
      <point x="966" y="534"/>
      <point x="956" y="521"/>
      <point x="929" y="521" type="curve" smooth="yes"/>
      <point x="894" y="521"/>
      <point x="890" y="549"/>
      <point x="889" y="606" type="curve" smooth="no"/>
      <point x="852" y="694"/>
      <point x="740" y="731"/>
      <point x="602" y="731" type="curve" smooth="yes"/>
      <point x="485" y="731"/>
      <point x="390" y="701"/>
      <point x="390" y="601" type="curve" smooth="yes"/>
      <point x="390" y="544"/>
      <point x="417" y="504"/>
      <point x="517" y="482" type="curve" smooth="no"/>
      <point x="776" y="430" type="line" smooth="yes"/>
      <point x="892" y="407"/>
      <point x="978" y="355"/>
      <point x="978" y="208" type="curve" smooth="yes"/>
      <point x="978" y="53"/>
      <point x="841" y="-17"/>
      <point x="652" y="-17" type="curve" smooth="yes"/>
      <point x="537" y="-17"/>
      <point x="420" y="13"/>
      <point x="342" y="102" type="curve" smooth="no"/>
      <point x="342" y="42" type="line" smooth="yes"/>
      <point x="342" y="12"/>
      <point x="324" y="0"/>
      <point x="306" y="-0" type="curve" smooth="yes"/>
      <point x="286" y="0"/>
      <point x="266" y="15"/>
      <point x="266" y="39" type="curve" smooth="yes"/>
      <point x="268" y="265" type="line" smooth="yes"/>
      <point x="268" y="302"/>
      <point x="287" y="317"/>
      <point x="304" y="317" type="curve" smooth="yes"/>
      <point x="322" y="317"/>
      <point x="340" y="312"/>
      <point x="340" y="265" type="curve" smooth="yes"/>
      <point x="340" y="151"/>
      <point x="474" y="65"/>
      <point x="646" y="65" type="curve" smooth="yes"/>
      <point x="795" y="65"/>
      <point x="881" y="110"/>
      <point x="881" y="209" type="curve" smooth="yes"/>
      <point x="881" y="273"/>
      <point x="853" y="318"/>
      <point x="763" y="335" type="curve" smooth="yes"/>
      <point x="497" y="387" type="line" smooth="yes"/>
      <point x="371" y="411"/>
      <point x="287" y="468"/>
      <point x="287" y="586" type="curve" smooth="yes"/>
      <point x="287" y="765"/>
      <point x="453" y="813"/>
    </contour>
  </outline>
</glyph>
<glyph name="t" format="1">
  <advance width="1240"/>
  <unicode hex="0074"/>
  <outline>
    <contour>
      <point x="505" y="204" type="line" smooth="yes"/>
      <point x="505" y="102"/>
      <point x="583" y="65"/>
      <point x="677" y="65" type="curve" smooth="yes"/>
      <point x="772" y="65"/>
      <point x="884" y="103"/>
      <point x="946" y="150" type="curve" smooth="yes"/>
      <point x="949" y="153"/>
      <point x="953" y="154"/>
      <point x="957" y="154" type="curve" smooth="yes"/>
      <point x="976" y="154"/>
      <point x="999" y="125"/>
      <point x="999" y="103" type="curve" smooth="yes"/>
      <point x="999" y="97"/>
      <point x="997" y="92"/>
      <point x="994" y="88" type="curve" smooth="yes"/>
      <point x="953" y="39"/>
      <point x="807" y="-17"/>
      <point x="667" y="-17" type="curve" smooth="yes"/>
      <point x="529" y="-17"/>
      <point x="409" y="69"/>
      <point x="409" y="169" type="curve" smooth="yes"/>
      <point x="409" y="692" type="line" smooth="no"/>
      <point x="266" y="692" type="line" smooth="yes"/>
      <point x="235" y="692"/>
      <point x="220" y="714"/>
      <point x="220" y="735" type="curve" smooth="yes"/>
      <point x="220" y="755"/>
      <point x="234" y="774"/>
      <point x="262" y="774" type="curve" smooth="yes"/>
      <point x="409" y="774" type="line" smooth="no"/>
      <point x="409" y="988"/>
      <point x="410" y="1058"/>
      <point x="469" y="1058" type="curve" smooth="yes"/>
      <point x="502" y="1058"/>
      <point x="505" y="1037"/>
      <point x="505" y="1013" type="curve" smooth="yes"/>
      <point x="505" y="774" type="line" smooth="no"/>
      <point x="877" y="774" type="line" smooth="yes"/>
      <point x="903" y="774"/>
      <point x="916" y="753"/>
      <point x="916" y="733" type="curve" smooth="yes"/>
      <point x="916" y="712"/>
      <point x="903" y="692"/>
      <point x="876" y="692" type="curve" smooth="yes"/>
      <point x="505" y="692" type="line" smooth="no"/>
    </contour>
  </outline>
</glyph>
<glyph name="v" format="1">
  <advance width="1240"/>
  <unicode hex="0076"/>
  <outline>
    <contour>
      <point x="491" y="774" type="line" smooth="yes"/>
      <point x="524" y="774"/>
      <point x="530" y="753"/>
      <point x="530" y="732" type="curve" smooth="yes"/>
      <point x="530" y="712"/>
      <point x="524" y="692"/>
      <point x="492" y="692" type="curve" smooth="yes"/>
      <point x="383" y="692" type="line" smooth="no"/>
      <point x="650" y="92" type="line" smooth="no"/>
      <point x="894" y="692" type="line" smooth="no"/>
      <point x="809" y="692" type="line" smooth="yes"/>
      <point x="776" y="692"/>
      <point x="770" y="712"/>
      <point x="770" y="732" type="curve" smooth="yes"/>
      <point x="770" y="753"/>
      <point x="777" y="774"/>
      <point x="810" y="774" type="curve" smooth="yes"/>
      <point x="1071" y="774" type="line" smooth="yes"/>
      <point x="1109" y="774"/>
      <point x="1117" y="754"/>
      <point x="1117" y="733" type="curve" smooth="yes"/>
      <point x="1117" y="713"/>
      <point x="1110" y="692"/>
      <point x="1075" y="692" type="curve" smooth="yes"/>
      <point x="986" y="692" type="line" smooth="no"/>
      <point x="719" y="54" type="line" smooth="yes"/>
      <point x="693" y="-8"/>
      <point x="674" y="-14"/>
      <point x="647" y="-14" type="curve" smooth="yes"/>
      <point x="620" y="-14"/>
      <point x="598" y="-8"/>
      <point x="567" y="59" type="curve" smooth="yes"/>
      <point x="273" y="692" type="line" smooth="no"/>
      <point x="172" y="692" type="line" smooth="yes"/>
      <point x="138" y="692"/>
      <point x="130" y="713"/>
      <point x="130" y="733" type="curve" smooth="yes"/>
      <point x="130" y="754"/>
      <point x="138" y="774"/>
      <point x="176" y="774" type="curve" smooth="yes"/>
    </contour>
  </outline>
</glyph>
<glyph name="z" format="1">
  <advance width="1240"/>
  <unicode hex="007a"/>
  <outline>
    <contour>
      <point x="896" y="772" type="line" smooth="yes"/>
      <point x="942" y="772"/>
      <point x="957" y="750"/>
      <point x="957" y="727" type="curve" smooth="yes"/>
      <point x="957" y="710"/>
      <point x="949" y="692"/>
      <point x="939" y="682" type="curve" smooth="yes"/>
      <point x="387" y="82" type="line" smooth="no"/>
      <point x="902" y="82" type="line" smooth="no"/>
      <point x="913" y="319" type="line" smooth="yes"/>
      <point x="914" y="343"/>
      <point x="936" y="357"/>
      <point x="957" y="357" type="curve" smooth="yes"/>
      <point x="978" y="357"/>
      <point x="998" y="344"/>
      <point x="998" y="315" type="curve" smooth="yes"/>
      <point x="998" y="46" type="line" smooth="yes"/>
      <point x="998" y="21"/>
      <point x="971" y="0"/>
      <point x="947" y="0" type="curve" smooth="yes"/>
      <point x="334" y="0" type="line" smooth="yes"/>
      <point x="296" y="0"/>
      <point x="278" y="24"/>
      <point x="278" y="59" type="curve" smooth="yes"/>
      <point x="278" y="81"/>
      <point x="284" y="97"/>
      <point x="295" y="109" type="curve" smooth="yes"/>
      <point x="829" y="692" type="line" smooth="no"/>
      <point x="368" y="692" type="line" smooth="no"/>
      <point x="360" y="495" type="line" smooth="yes"/>
      <point x="359" y="465"/>
      <point x="339" y="450"/>
      <point x="318" y="450" type="curve" smooth="yes"/>
      <point x="296" y="450"/>
      <point x="273" y="467"/>
      <point x="273" y="500" type="curve" smooth="yes"/>
      <point x="273" y="726" type="line" smooth="yes"/>
      <point x="273" y="750"/>
      <point x="295" y="772"/>
      <point x="319" y="772" type="curve" smooth="yes"/>
    </contour>
  </outline>
</glyph>
<glyph name="currency" format="1">
  <advance width="1240"/>
  <unicode hex="00a4"/>
  <outline>
    <contour>
      <point x="616" y="368" type="curve" smooth="yes"/>
      <point x="738" y="368"/>
      <point x="801" y="453"/>
      <point x="801" y="560" type="curve" smooth="yes"/>
      <point x="801" y="667"/>
      <point x="740" y="756"/>
      <point x="615" y="756" type="curve" smooth="yes"/>
      <point x="490" y="756"/>
      <point x="430" y="667"/>
      <point x="430" y="560" type="curve" smooth="yes"/>
      <point x="430" y="455"/>
      <point x="496" y="368"/>
    </contour>
    <contour>
      <point x="459" y="358" type="curve" smooth="no"/>
      <point x="371" y="271" type="line" smooth="yes"/>
      <point x="340" y="240"/>
      <point x="296" y="282"/>
      <point x="328" y="314" type="curve" smooth="yes"/>
      <point x="414" y="400" type="line" smooth="no"/>
      <point x="378" y="444"/>
      <point x="361" y="501"/>
      <point x="361" y="558" type="curve" smooth="yes"/>
      <point x="361" y="615"/>
      <point x="379" y="672"/>
      <point x="414" y="717" type="curve" smooth="no"/>
      <point x="328" y="803" type="line" smooth="yes"/>
      <point x="296" y="835"/>
      <point x="341" y="876"/>
      <point x="372" y="845" type="curve" smooth="yes"/>
      <point x="457" y="760" type="line" smooth="no"/>
      <point x="498" y="791"/>
      <point x="551" y="811"/>
      <point x="616" y="811" type="curve" smooth="yes"/>
      <point x="682" y="811"/>
      <point x="734" y="792"/>
      <point x="774" y="760" type="curve" smooth="no"/>
      <point x="858" y="843" type="line" smooth="yes"/>
      <point x="890" y="875"/>
      <point x="933" y="831"/>
      <point x="901" y="799" type="curve" smooth="yes"/>
      <point x="817" y="715" type="line" smooth="no"/>
      <point x="848" y="671"/>
      <point x="863" y="617"/>
      <point x="863" y="563" type="curve" smooth="yes"/>
      <point x="863" y="507"/>
      <point x="845" y="450"/>
      <point x="810" y="405" type="curve" smooth="no"/>
      <point x="900" y="315" type="line" smooth="yes"/>
      <point x="931" y="284"/>
      <point x="890" y="240"/>
      <point x="857" y="273" type="curve" smooth="yes"/>
      <point x="768" y="362" type="line" smooth="no"/>
      <point x="728" y="332"/>
      <point x="675" y="313"/>
      <point x="611" y="313" type="curve" smooth="yes"/>
      <point x="549" y="313"/>
      <point x="498" y="330"/>
    </contour>
  </outline>
</glyph>
<glyph name="dieresis" format="1">
  <advance width="1240"/>
  <unicode hex="00a8"/>
  <outline>
    <contour>
      <point x="532" y="1143" type="curve" smooth="yes"/>
      <point x="578" y="1143"/>
      <point x="614" y="1106"/>
      <point x="614" y="1060" type="curve" smooth="yes"/>
      <point x="614" y="1014"/>
      <point x="578" y="978"/>
      <point x="532" y="978" type="curve" smooth="yes"/>
      <point x="486" y="978"/>
      <point x="449" y="1014"/>
      <point x="449" y="1060" type="curve" smooth="yes"/>
      <point x="449" y="1106"/>
      <point x="486" y="1143"/>
    </contour>
    <contour>
      <point x="867" y="1143" type="curve" smooth="yes"/>
      <point x="913" y="1143"/>
      <point x="949" y="1106"/>
      <point x="949" y="1060" type="curve" smooth="yes"/>
      <point x="949" y="1014"/>
      <point x="913" y="978"/>
      <point x="867" y="978" type="curve" smooth="yes"/>
      <point x="821" y="978"/>
      <point x="784" y="1014"/>
      <point x="784" y="1060" type="curve" smooth="yes"/>
      <point x="784" y="1106"/>
      <point x="821" y="1143"/>
    </contour>
  </outline>
</glyph>
<glyph name="registered" format="1">
  <advance width="1240"/>
  <unicode hex="00ae"/>
  <outline>
    <contour>
      <point x="633" y="273" type="curve" smooth="yes"/>
      <point x="633" y="261"/>
      <point x="624" y="245"/>
      <point x="605" y="245" type="curve" smooth="yes"/>
      <point x="380" y="245" type="line" smooth="yes"/>
      <point x="361" y="245"/>
      <point x="351" y="261"/>
      <point x="351" y="273" type="curve" smooth="yes"/>
      <point x="351" y="286"/>
      <point x="361" y="301"/>
      <point x="379" y="301" type="curve" smooth="yes"/>
      <point x="443" y="301" type="line" smooth="no"/>
      <point x="443" y="878" type="line" smooth="no"/>
      <point x="395" y="878" type="line" smooth="yes"/>
      <point x="376" y="878"/>
      <point x="367" y="894"/>
      <point x="367" y="907" type="curve" smooth="yes"/>
      <point x="367" y="920"/>
      <point x="376" y="937"/>
      <point x="396" y="937" type="curve" smooth="yes"/>
      <point x="578" y="937" type="line" smooth="yes"/>
      <point x="741" y="937"/>
      <point x="851" y="909"/>
      <point x="851" y="749" type="curve" smooth="yes"/>
      <point x="851" y="658"/>
      <point x="795" y="609"/>
      <point x="737" y="587" type="curve" smooth="no"/>
      <point x="841" y="301" type="line" smooth="no"/>
      <point x="878" y="301" type="line" smooth="yes"/>
      <point x="907" y="301"/>
      <point x="915" y="286"/>
      <point x="915" y="274" type="curve" smooth="yes"/>
      <point x="915" y="261"/>
      <point x="906" y="245"/>
      <point x="879" y="245" type="curve" smooth="yes"/>
      <point x="732" y="245" type="line" smooth="yes"/>
      <point x="712" y="245"/>
      <point x="703" y="261"/>
      <point x="703" y="274" type="curve" smooth="yes"/>
      <point x="703" y="286"/>
      <point x="712" y="301"/>
      <point x="730" y="301" type="curve" smooth="yes"/>
      <point x="759" y="301" type="line" smooth="no"/>
      <point x="671" y="574" type="line" smooth="no"/>
      <point x="664" y="571"/>
      <point x="588" y="565"/>
      <point x="561" y="565" type="curve" smooth="yes"/>
      <point x="514" y="565" type="line" smooth="no"/>
      <point x="514" y="301" type="line" smooth="no"/>
      <point x="605" y="301" type="line" smooth="yes"/>
      <point x="624" y="301"/>
      <point x="633" y="286"/>
    </contour>
    <contour>
      <point x="514" y="623" type="line" smooth="no"/>
      <point x="573" y="624" type="line" smooth="yes"/>
      <point x="668" y="626"/>
      <point x="779" y="627"/>
      <point x="779" y="745" type="curve" smooth="yes"/>
      <point x="779" y="865"/>
      <point x="700" y="878"/>
      <point x="564" y="878" type="curve" smooth="yes"/>
      <point x="514" y="878" type="line" smooth="no"/>
    </contour>
    <contour>
      <point x="128" y="583" type="curve" smooth="yes"/>
      <point x="128" y="265"/>
      <point x="296" y="83"/>
      <point x="620" y="83" type="curve" smooth="yes"/>
      <point x="944" y="83"/>
      <point x="1113" y="265"/>
      <point x="1113" y="583" type="curve" smooth="yes"/>
      <point x="1113" y="902"/>
      <point x="943" y="1089"/>
      <point x="620" y="1089" type="curve" smooth="yes"/>
      <point x="297" y="1089"/>
      <point x="128" y="900"/>
    </contour>
    <contour>
      <point x="1193" y="581" type="curve" smooth="yes"/>
      <point x="1193" y="218"/>
      <point x="981" y="13"/>
      <point x="620" y="13" type="curve" smooth="yes"/>
      <point x="259" y="13"/>
      <point x="48" y="218"/>
      <point x="48" y="581" type="curve" smooth="yes"/>
      <point x="48" y="944"/>
      <point x="258" y="1158"/>
      <point x="620" y="1158" type="curve" smooth="yes"/>
      <point x="982" y="1158"/>
      <point x="1193" y="944"/>
    </contour>
  </outline>
</glyph>
<glyph name="degree" format="1">
  <advance width="1240"/>
  <unicode hex="00b0"/>
  <outline>
    <contour>
      <point x="707" y="719" type="curve" smooth="yes"/>
      <point x="801" y="719"/>
      <point x="845" y="788"/>
      <point x="845" y="870" type="curve" smooth="yes"/>
      <point x="845" y="952"/>
      <point x="798" y="1024"/>
      <point x="702" y="1024" type="curve" smooth="yes"/>
      <point x="606" y="1024"/>
      <point x="560" y="952"/>
      <point x="560" y="870" type="curve" smooth="yes"/>
      <point x="560" y="789"/>
      <point x="615" y="719"/>
    </contour>
    <contour>
      <point x="703" y="1121" type="curve" smooth="yes"/>
      <point x="868" y="1121"/>
      <point x="950" y="998"/>
      <point x="950" y="873" type="curve" smooth="yes"/>
      <point x="950" y="749"/>
      <point x="864" y="623"/>
      <point x="698" y="623" type="curve" smooth="yes"/>
      <point x="532" y="623"/>
      <point x="448" y="745"/>
      <point x="448" y="868" type="curve" smooth="yes"/>
      <point x="448" y="994"/>
      <point x="536" y="1121"/>
    </contour>
  </outline>
</glyph>
<glyph name="plusminus" format="1">
  <advance width="1240"/>
  <unicode hex="00b1"/>
  <outline>
    <contour>
      <point x="316" y="82" type="curve" smooth="yes"/>
      <point x="924" y="82" type="line" smooth="yes"/>
      <point x="957" y="82"/>
      <point x="967" y="61"/>
      <point x="967" y="41" type="curve" smooth="yes"/>
      <point x="967" y="20"/>
      <point x="956" y="0"/>
      <point x="924" y="0" type="curve" smooth="yes"/>
      <point x="316" y="0" type="line" smooth="yes"/>
      <point x="283" y="0"/>
      <point x="273" y="20"/>
      <point x="273" y="41" type="curve" smooth="yes"/>
      <point x="273" y="61"/>
      <point x="283" y="82"/>
    </contour>
    <contour>
      <point x="924" y="558" type="line" smooth="yes"/>
      <point x="957" y="558"/>
      <point x="967" y="537"/>
      <point x="967" y="517" type="curve" smooth="yes"/>
      <point x="967" y="496"/>
      <point x="957" y="476"/>
      <point x="924" y="476" type="curve" smooth="yes"/>
      <point x="669" y="476" type="line" smooth="no"/>
      <point x="669" y="235" type="line" smooth="yes"/>
      <point x="669" y="200"/>
      <point x="645" y="183"/>
      <point x="621" y="183" type="curve" smooth="yes"/>
      <point x="597" y="183"/>
      <point x="573" y="200"/>
      <point x="573" y="235" type="curve" smooth="yes"/>
      <point x="573" y="476" type="line" smooth="no"/>
      <point x="316" y="476" type="line" smooth="yes"/>
      <point x="284" y="476"/>
      <point x="273" y="496"/>
      <point x="273" y="517" type="curve" smooth="yes"/>
      <point x="273" y="537"/>
      <point x="284" y="558"/>
      <point x="316" y="558" type="curve" smooth="yes"/>
      <point x="573" y="558" type="line" smooth="no"/>
      <point x="573" y="804" type="line" smooth="yes"/>
      <point x="573" y="839"/>
      <point x="597" y="856"/>
      <point x="621" y="856" type="curve" smooth="yes"/>
      <point x="645" y="856"/>
      <point x="669" y="839"/>
      <point x="669" y="804" type="curve" smooth="yes"/>
      <point x="669" y="558" type="line" smooth="no"/>
    </contour>
  </outline>
</glyph>
<glyph name="uni00B2" format="1">
  <advance width="1240"/>
  <unicode hex="00b2"/>
  <outline>
    <contour>
      <point x="821" y="1007" type="curve" smooth="yes"/>
      <point x="821" y="802"/>
      <point x="538" y="724"/>
      <point x="491" y="520" type="curve" smooth="no"/>
      <point x="772" y="520" type="line" smooth="no"/>
      <point x="779" y="624" type="line" smooth="yes"/>
      <point x="780" y="646"/>
      <point x="795" y="659"/>
      <point x="810" y="659" type="curve" smooth="yes"/>
      <point x="824" y="659"/>
      <point x="837" y="648"/>
      <point x="837" y="619" type="curve" smooth="yes"/>
      <point x="837" y="495" type="line" smooth="yes"/>
      <point x="837" y="470"/>
      <point x="824" y="455"/>
      <point x="805" y="455" type="curve" smooth="yes"/>
      <point x="423" y="455" type="line" smooth="no"/>
      <point x="421" y="464"/>
      <point x="419" y="472"/>
      <point x="419" y="484" type="curve" smooth="yes"/>
      <point x="419" y="723"/>
      <point x="750" y="840"/>
      <point x="750" y="1001" type="curve" smooth="yes"/>
      <point x="750" y="1088"/>
      <point x="688" y="1133"/>
      <point x="609" y="1133" type="curve" smooth="yes"/>
      <point x="571" y="1133"/>
      <point x="529" y="1123"/>
      <point x="489" y="1101" type="curve" smooth="no"/>
      <point x="480" y="1005"/>
      <point x="479" y="962"/>
      <point x="450" y="962" type="curve" smooth="yes"/>
      <point x="425" y="962"/>
      <point x="414" y="989"/>
      <point x="414" y="1025" type="curve" smooth="yes"/>
      <point x="414" y="1134"/>
      <point x="508" y="1187"/>
      <point x="606" y="1187" type="curve" smooth="yes"/>
      <point x="711" y="1187"/>
      <point x="821" y="1126"/>
    </contour>
  </outline>
</glyph>
<glyph name="ae" format="1">
  <advance width="1240"/>
  <unicode hex="00e6"/>
  <outline>
    <contour>
      <point x="352" y="60" type="curve" smooth="yes"/>
      <point x="449" y="60"/>
      <point x="558" y="103"/>
      <point x="603" y="193" type="curve" smooth="no"/>
      <point x="585" y="249"/>
      <point x="574" y="316"/>
      <point x="573" y="391" type="curve" smooth="no"/>
      <point x="292" y="375"/>
      <point x="210" y="355"/>
      <point x="210" y="203" type="curve" smooth="yes"/>
      <point x="210" y="116"/>
      <point x="272" y="60"/>
    </contour>
    <contour>
      <point x="658" y="461" type="curve" smooth="no"/>
      <point x="1033" y="474" type="line" smooth="no"/>
      <point x="1027" y="572"/>
      <point x="1005" y="731"/>
      <point x="870" y="731" type="curve" smooth="yes"/>
      <point x="688" y="731"/>
      <point x="666" y="566"/>
    </contour>
    <contour>
      <point x="628" y="129" type="curve" smooth="no"/>
      <point x="575" y="36"/>
      <point x="459" y="-17"/>
      <point x="335" y="-17" type="curve" smooth="yes"/>
      <point x="226" y="-17"/>
      <point x="119" y="69"/>
      <point x="119" y="203" type="curve" smooth="yes"/>
      <point x="119" y="433"/>
      <point x="308" y="445"/>
      <point x="572" y="459" type="curve" smooth="no"/>
      <point x="572" y="496" type="line" smooth="yes"/>
      <point x="572" y="631"/>
      <point x="547" y="731"/>
      <point x="405" y="731" type="curve" smooth="yes"/>
      <point x="327" y="731"/>
      <point x="270" y="711"/>
      <point x="247" y="701" type="curve" smooth="no"/>
      <point x="242" y="608"/>
      <point x="230" y="531"/>
      <point x="185" y="531" type="curve" smooth="yes"/>
      <point x="147" y="531"/>
      <point x="129" y="563"/>
      <point x="129" y="603" type="curve" smooth="yes"/>
      <point x="129" y="725"/>
      <point x="213" y="813"/>
      <point x="406" y="813" type="curve" smooth="yes"/>
      <point x="520" y="813"/>
      <point x="606" y="747"/>
      <point x="624" y="642" type="curve" smooth="no"/>
      <point x="669" y="748"/>
      <point x="758" y="813"/>
      <point x="869" y="813" type="curve" smooth="yes"/>
      <point x="1002" y="813"/>
      <point x="1112" y="707"/>
      <point x="1112" y="488" type="curve" smooth="yes"/>
      <point x="1112" y="438"/>
      <point x="1084" y="408"/>
      <point x="1040" y="408" type="curve" smooth="no"/>
      <point x="655" y="394" type="line" smooth="no"/>
      <point x="662" y="176"/>
      <point x="739" y="61"/>
      <point x="884" y="61" type="curve" smooth="yes"/>
      <point x="953" y="61"/>
      <point x="975" y="72"/>
      <point x="1048" y="146" type="curve" smooth="no"/>
      <point x="1062" y="158"/>
      <point x="1075" y="163"/>
      <point x="1086" y="163" type="curve" smooth="yes"/>
      <point x="1109" y="163"/>
      <point x="1122" y="151"/>
      <point x="1122" y="127" type="curve" smooth="yes"/>
      <point x="1122" y="113"/>
      <point x="1117" y="98"/>
      <point x="1106" y="85" type="curve" smooth="yes"/>
      <point x="1033" y="1"/>
      <point x="938" y="-17"/>
      <point x="876" y="-17" type="curve" smooth="yes"/>
      <point x="762" y="-17"/>
      <point x="674" y="44"/>
    </contour>
  </outline>
</glyph>
<glyph name="Hbar" format="1">
  <advance width="1240"/>
  <unicode hex="0126"/>
  <outline>
    <component base="H"/>
    <contour>
      <point x="153" y="855" type="line" smooth="yes"/>
      <point x="116" y="855"/>
      <point x="107" y="875"/>
      <point x="107" y="894" type="curve" smooth="yes"/>
      <point x="107" y="913"/>
      <point x="114" y="931"/>
      <point x="149" y="931" type="curve" smooth="yes"/>
      <point x="1108" y="931" type="line" smooth="yes"/>
      <point x="1141" y="931"/>
      <point x="1147" y="913"/>
      <point x="1147" y="894" type="curve" smooth="yes"/>
      <point x="1147" y="875"/>
      <point x="1139" y="855"/>
      <point x="1106" y="855" type="curve" smooth="yes"/>
    </contour>
  </outline>
</glyph>
<glyph name="ij" format="1">
  <advance width="1240"/>
  <unicode hex="0133"/>
  <outline>
    <contour>
      <point x="537" y="1171" type="curve" smooth="yes"/>
      <point x="583" y="1171"/>
      <point x="619" y="1134"/>
      <point x="619" y="1088" type="curve" smooth="yes"/>
      <point x="619" y="1042"/>
      <point x="583" y="1006"/>
      <point x="537" y="1006" type="curve" smooth="yes"/>
      <point x="491" y="1006"/>
      <point x="454" y="1042"/>
      <point x="454" y="1088" type="curve" smooth="yes"/>
      <point x="454" y="1134"/>
      <point x="491" y="1171"/>
    </contour>
    <contour>
      <point x="955" y="1171" type="curve" smooth="yes"/>
      <point x="1001" y="1171"/>
      <point x="1037" y="1134"/>
      <point x="1037" y="1088" type="curve" smooth="yes"/>
      <point x="1037" y="1042"/>
      <point x="1001" y="1006"/>
      <point x="955" y="1006" type="curve" smooth="yes"/>
      <point x="909" y="1006"/>
      <point x="872" y="1042"/>
      <point x="872" y="1088" type="curve" smooth="yes"/>
      <point x="872" y="1134"/>
      <point x="909" y="1171"/>
    </contour>
    <contour>
      <point x="576" y="-310" type="curve" smooth="yes"/>
      <point x="543" y="-310"/>
      <point x="525" y="-288"/>
      <point x="525" y="-266" type="curve" smooth="yes"/>
      <point x="525" y="-244"/>
      <point x="544" y="-221"/>
      <point x="583" y="-221" type="curve" smooth="yes"/>
      <point x="758" y="-221"/>
      <point x="946" y="-156"/>
      <point x="946" y="-1" type="curve" smooth="yes"/>
      <point x="946" y="731" type="line" smooth="no"/>
      <point x="583" y="731" type="line" smooth="no"/>
      <point x="583" y="82" type="line" smooth="no"/>
      <point x="701" y="82" type="line" smooth="yes"/>
      <point x="728" y="82"/>
      <point x="741" y="61"/>
      <point x="741" y="41" type="curve" smooth="yes"/>
      <point x="741" y="20"/>
      <point x="727" y="0"/>
      <point x="700" y="0" type="curve" smooth="yes"/>
      <point x="185" y="0" type="line" smooth="yes"/>
      <point x="154" y="0"/>
      <point x="139" y="22"/>
      <point x="139" y="43" type="curve" smooth="yes"/>
      <point x="139" y="63"/>
      <point x="153" y="82"/>
      <point x="181" y="82" type="curve" smooth="yes"/>
      <point x="487" y="82" type="line" smooth="no"/>
      <point x="487" y="731" type="line" smooth="no"/>
      <point x="307" y="731" type="line" smooth="yes"/>
      <point x="280" y="731"/>
      <point x="266" y="753"/>
      <point x="266" y="774" type="curve" smooth="yes"/>
      <point x="266" y="793"/>
      <point x="276" y="813"/>
      <point x="298" y="813" type="curve" smooth="yes"/>
      <point x="1006" y="813" type="line" smooth="yes"/>
      <point x="1026" y="813"/>
      <point x="1042" y="805"/>
      <point x="1042" y="784" type="curve" smooth="yes"/>
      <point x="1042" y="-11" type="line" smooth="yes"/>
      <point x="1042" y="-199"/>
      <point x="821" y="-310"/>
    </contour>
  </outline>
</glyph>
<glyph name="eng" format="1">
  <advance width="1240"/>
  <unicode hex="014b"/>
  <outline>
    <contour>
      <point x="484" y="-308" type="curve" smooth="yes"/>
      <point x="451" y="-308"/>
      <point x="433" y="-286"/>
      <point x="433" y="-264" type="curve" smooth="yes"/>
      <point x="433" y="-242"/>
      <point x="452" y="-219"/>
      <point x="491" y="-219" type="curve" smooth="yes"/>
      <point x="666" y="-219"/>
      <point x="916" y="-154"/>
      <point x="916" y="1" type="curve" smooth="yes"/>
      <point x="916" y="540" type="line" smooth="yes"/>
      <point x="916" y="659"/>
      <point x="857" y="731"/>
      <point x="736" y="731" type="curve" smooth="yes"/>
      <point x="544" y="731"/>
      <point x="416" y="604"/>
      <point x="416" y="503" type="curve" smooth="yes"/>
      <point x="416" y="82" type="line" smooth="no"/>
      <point x="521" y="82" type="line" smooth="yes"/>
      <point x="553" y="82"/>
      <point x="569" y="62"/>
      <point x="569" y="42" type="curve" smooth="yes"/>
      <point x="569" y="21"/>
      <point x="552" y="0"/>
      <point x="519" y="0" type="curve" smooth="yes"/>
      <point x="216" y="0" type="line" smooth="yes"/>
      <point x="185" y="0"/>
      <point x="170" y="22"/>
      <point x="170" y="43" type="curve" smooth="yes"/>
      <point x="170" y="63"/>
      <point x="184" y="82"/>
      <point x="212" y="82" type="curve" smooth="yes"/>
      <point x="320" y="82" type="line" smooth="no"/>
      <point x="320" y="709" type="line" smooth="no"/>
      <point x="212" y="687" type="line" smooth="yes"/>
      <point x="205" y="685"/>
      <point x="198" y="684"/>
      <point x="192" y="684" type="curve" smooth="yes"/>
      <point x="168" y="684"/>
      <point x="153" y="702"/>
      <point x="153" y="722" type="curve" smooth="yes"/>
      <point x="153" y="738"/>
      <point x="162" y="757"/>
      <point x="186" y="763" type="curve" smooth="no"/>
      <point x="350" y="796" type="line" smooth="yes"/>
      <point x="357" y="797"/>
      <point x="363" y="798"/>
      <point x="368" y="798" type="curve" smooth="yes"/>
      <point x="395" y="798"/>
      <point x="406" y="782"/>
      <point x="407" y="759" type="curve" smooth="yes"/>
      <point x="412" y="639" type="line" smooth="no"/>
      <point x="462" y="737"/>
      <point x="592" y="813"/>
      <point x="731" y="813" type="curve" smooth="yes"/>
      <point x="924" y="813"/>
      <point x="1012" y="707"/>
      <point x="1012" y="533" type="curve" smooth="yes"/>
      <point x="1012" y="-9" type="line" smooth="yes"/>
      <point x="1012" y="-197"/>
      <point x="729" y="-308"/>
    </contour>
  </outline>
</glyph>
<glyph name="OE" format="1">
  <advance width="1240"/>
  <unicode hex="0152"/>
  <outline>
    <contour>
      <point x="924" y="437" type="line" smooth="yes"/>
      <point x="924" y="402"/>
      <point x="905" y="386"/>
      <point x="886" y="386" type="curve" smooth="yes"/>
      <point x="867" y="386"/>
      <point x="848" y="401"/>
      <point x="846" y="429" type="curve" smooth="yes"/>
      <point x="833" y="577" type="line" smooth="no"/>
      <point x="677" y="577" type="line" smooth="no"/>
      <point x="677" y="85" type="line" smooth="no"/>
      <point x="1012" y="85" type="line" smooth="no"/>
      <point x="1028" y="336" type="line" smooth="yes"/>
      <point x="1029" y="360"/>
      <point x="1051" y="375"/>
      <point x="1072" y="375" type="curve" smooth="yes"/>
      <point x="1093" y="375"/>
      <point x="1114" y="359"/>
      <point x="1114" y="323" type="curve" smooth="yes"/>
      <point x="1114" y="53" type="line" smooth="yes"/>
      <point x="1114" y="19"/>
      <point x="1091" y="0"/>
      <point x="1058" y="0" type="curve" smooth="yes"/>
      <point x="564" y="0" type="line" smooth="yes"/>
      <point x="563" y="0" type="line" smooth="yes"/>
      <point x="340" y="0"/>
      <point x="118" y="200"/>
      <point x="118" y="582" type="curve" smooth="yes"/>
      <point x="118" y="965"/>
      <point x="342" y="1172"/>
      <point x="566" y="1172" type="curve" smooth="yes"/>
      <point x="726" y="1172"/>
      <point x="886" y="1171"/>
      <point x="1046" y="1171" type="curve" smooth="yes"/>
      <point x="1079" y="1171"/>
      <point x="1102" y="1151"/>
      <point x="1102" y="1117" type="curve" smooth="yes"/>
      <point x="1102" y="847" type="line" smooth="yes"/>
      <point x="1102" y="817"/>
      <point x="1082" y="803"/>
      <point x="1062" y="803" type="curve" smooth="yes"/>
      <point x="1042" y="803"/>
      <point x="1021" y="816"/>
      <point x="1020" y="841" type="curve" smooth="yes"/>
      <point x="1006" y="1084" type="line" smooth="no"/>
      <point x="677" y="1084" type="line" smooth="no"/>
      <point x="677" y="654" type="line" smooth="no"/>
      <point x="833" y="654" type="line" smooth="no"/>
      <point x="846" y="787" type="line" smooth="yes"/>
      <point x="849" y="817"/>
      <point x="868" y="832"/>
      <point x="886" y="832" type="curve" smooth="yes"/>
      <point x="905" y="832"/>
      <point x="924" y="816"/>
      <point x="924" y="779" type="curve" smooth="yes"/>
    </contour>
    <contour>
      <point x="214" y="582" type="curve" smooth="yes"/>
      <point x="214" y="260"/>
      <point x="387" y="82"/>
      <point x="561" y="82" type="curve" smooth="yes"/>
      <point x="579" y="82" type="line" smooth="no"/>
      <point x="579" y="1084" type="line" smooth="no"/>
      <point x="564" y="1084" type="line" smooth="yes"/>
      <point x="389" y="1084"/>
      <point x="214" y="913"/>
    </contour>
  </outline>
</glyph>
<glyph name="Tbar" format="1">
  <advance width="1240"/>
  <unicode hex="0166"/>
  <outline>
    <component base="T"/>
    <contour>
      <point x="839" y="648" type="line" smooth="yes"/>
      <point x="872" y="648"/>
      <point x="878" y="630"/>
      <point x="878" y="611" type="curve" smooth="yes"/>
      <point x="878" y="592"/>
      <point x="870" y="572"/>
      <point x="837" y="572" type="curve" smooth="yes"/>
      <point x="404" y="572" type="line" smooth="yes"/>
      <point x="367" y="572"/>
      <point x="358" y="592"/>
      <point x="358" y="611" type="curve" smooth="yes"/>
      <point x="358" y="630"/>
      <point x="365" y="648"/>
      <point x="400" y="648" type="curve" smooth="yes"/>
    </contour>
  </outline>
</glyph>
<glyph name="florin" format="1">
  <advance width="1240"/>
  <unicode hex="0192"/>
  <outline>
    <contour>
      <point x="623" y="48" type="line" smooth="yes"/>
      <point x="602" y="-193"/>
      <point x="422" y="-211"/>
      <point x="296" y="-211" type="curve" smooth="yes"/>
      <point x="270" y="-211"/>
      <point x="262" y="-198"/>
      <point x="262" y="-174" type="curve" smooth="yes"/>
      <point x="262" y="-170"/>
      <point x="263" y="-166"/>
      <point x="263" y="-161" type="curve" smooth="yes"/>
      <point x="273" y="-43" type="line" smooth="yes"/>
      <point x="275" y="-23"/>
      <point x="298" y="-13"/>
      <point x="318" y="-13" type="curve" smooth="yes"/>
      <point x="337" y="-13"/>
      <point x="353" y="-21"/>
      <point x="353" y="-36" type="curve" smooth="yes"/>
      <point x="353" y="-39" type="line" smooth="no"/>
      <point x="345" y="-137" type="line" smooth="no"/>
      <point x="430" y="-137"/>
      <point x="514" y="-103"/>
      <point x="527" y="46" type="curve" smooth="yes"/>
      <point x="581" y="690" type="line" smooth="no"/>
      <point x="436" y="690" type="line" smooth="yes"/>
      <point x="413" y="690"/>
      <point x="403" y="709"/>
      <point x="403" y="729" type="curve" smooth="yes"/>
      <point x="403" y="734" type="line" smooth="no"/>
      <point x="405" y="754"/>
      <point x="417" y="774"/>
      <point x="439" y="774" type="curve" smooth="yes"/>
      <point x="588" y="774" type="line" smooth="no"/>
      <point x="594" y="838" type="line" smooth="no"/>
      <point x="614" y="1079"/>
      <point x="743" y="1188"/>
      <point x="988" y="1188" type="curve" smooth="yes"/>
      <point x="1016" y="1188"/>
      <point x="1041" y="1171"/>
      <point x="1041" y="1142" type="curve" smooth="yes"/>
      <point x="1041" y="1137" type="line" smooth="no"/>
      <point x="1031" y="1020" type="line" smooth="yes"/>
      <point x="1029" y="1000"/>
      <point x="1005" y="990"/>
      <point x="981" y="990" type="curve" smooth="yes"/>
      <point x="961" y="990"/>
      <point x="941" y="998"/>
      <point x="941" y="1014" type="curve" smooth="yes"/>
      <point x="941" y="1016" type="line" smooth="no"/>
      <point x="949" y="1118" type="line" smooth="no"/>
      <point x="803" y="1105"/>
      <point x="709" y="1062"/>
      <point x="690" y="841" type="curve" smooth="yes"/>
      <point x="684" y="774" type="line" smooth="no"/>
      <point x="854" y="774" type="line" smooth="yes"/>
      <point x="874" y="774"/>
      <point x="883" y="757"/>
      <point x="883" y="739" type="curve" smooth="yes"/>
      <point x="883" y="734" type="line" smooth="no"/>
      <point x="881" y="712"/>
      <point x="868" y="690"/>
      <point x="846" y="690" type="curve" smooth="yes"/>
      <point x="677" y="690" type="line" smooth="no"/>
    </contour>
  </outline>
</glyph>
<glyph name="uni01C7" format="1">
  <advance width="1240"/>
  <unicode hex="01c7"/>
  <outline>
    <contour>
      <point x="349" y="1171" type="line" smooth="yes"/>
      <point x="383" y="1171"/>
      <point x="400" y="1149"/>
      <point x="400" y="1127" type="curve" smooth="yes"/>
      <point x="400" y="1106"/>
      <point x="383" y="1085"/>
      <point x="350" y="1085" type="curve" smooth="yes"/>
      <point x="198" y="1085" type="line" smooth="no"/>
      <point x="198" y="86" type="line" smooth="no"/>
      <point x="475" y="86" type="line" smooth="yes"/>
      <point x="483" y="86"/>
      <point x="482" y="88"/>
      <point x="483" y="99" type="curve" smooth="yes"/>
      <point x="490" y="389" type="line" smooth="no"/>
      <point x="494" y="418"/>
      <point x="517" y="432"/>
      <point x="540" y="432" type="curve" smooth="yes"/>
      <point x="566" y="432"/>
      <point x="591" y="415"/>
      <point x="591" y="383" type="curve" smooth="yes"/>
      <point x="591" y="66" type="line" smooth="no"/>
      <point x="586" y="29"/>
      <point x="562" y="0"/>
      <point x="519" y="0" type="curve" smooth="yes"/>
      <point x="64" y="0" type="line" smooth="yes"/>
      <point x="30" y="0"/>
      <point x="13" y="21"/>
      <point x="13" y="43" type="curve" smooth="yes"/>
      <point x="13" y="64"/>
      <point x="30" y="86"/>
      <point x="63" y="86" type="curve" smooth="yes"/>
      <point x="102" y="86" type="line" smooth="no"/>
      <point x="102" y="1085" type="line" smooth="no"/>
      <point x="55" y="1085" type="line" smooth="yes"/>
      <point x="22" y="1085"/>
      <point x="6" y="1106"/>
      <point x="6" y="1127" type="curve" smooth="yes"/>
      <point x="6" y="1149"/>
      <point x="23" y="1171"/>
      <point x="56" y="1171" type="curve" smooth="yes"/>
    </contour>
    <contour>
      <point x="1154" y="367" type="line" smooth="yes"/>
      <point x="1154" y="72"/>
      <point x="1083" y="-13"/>
      <point x="890" y="-13" type="curve" smooth="yes"/>
      <point x="758" y="-13"/>
      <point x="677" y="56"/>
      <point x="677" y="171" type="curve" smooth="yes"/>
      <point x="677" y="283" type="line" smooth="yes"/>
      <point x="677" y="312"/>
      <point x="702" y="328"/>
      <point x="726" y="328" type="curve" smooth="yes"/>
      <point x="750" y="328"/>
      <point x="773" y="313"/>
      <point x="773" y="283" type="curve" smooth="yes"/>
      <point x="773" y="170" type="line" smooth="yes"/>
      <point x="773" y="102"/>
      <point x="811" y="68"/>
      <point x="899" y="68" type="curve" smooth="yes"/>
      <point x="1030" y="68"/>
      <point x="1058" y="134"/>
      <point x="1058" y="364" type="curve" smooth="yes"/>
      <point x="1058" y="1085" type="line" smooth="no"/>
      <point x="778" y="1085" type="line" smooth="yes"/>
      <point x="746" y="1085"/>
      <point x="730" y="1106"/>
      <point x="730" y="1127" type="curve" smooth="yes"/>
      <point x="730" y="1149"/>
      <point x="746" y="1171"/>
      <point x="779" y="1171" type="curve" smooth="yes"/>
      <point x="1224" y="1171" type="line" smooth="yes"/>
      <point x="1257" y="1171"/>
      <point x="1274" y="1150"/>
      <point x="1274" y="1128" type="curve" smooth="yes"/>
      <point x="1274" y="1107"/>
      <point x="1258" y="1085"/>
      <point x="1225" y="1085" type="curve" smooth="yes"/>
      <point x="1154" y="1085" type="line" smooth="no"/>
    </contour>
  </outline>
</glyph>
<glyph name="caron" format="1">
  <advance width="1240"/>
  <unicode hex="02c7"/>
  <outline>
    <contour>
      <point x="699" y="979" type="curve" smooth="yes"/>
      <point x="686" y="979"/>
      <point x="673" y="982"/>
      <point x="668" y="990" type="curve" smooth="yes"/>
      <point x="484" y="1273" type="line" smooth="no"/>
      <point x="479" y="1278"/>
      <point x="477" y="1285"/>
      <point x="477" y="1290" type="curve" smooth="yes"/>
      <point x="477" y="1306"/>
      <point x="496" y="1320"/>
      <point x="514" y="1320" type="curve" smooth="yes"/>
      <point x="522" y="1320"/>
      <point x="532" y="1319"/>
      <point x="537" y="1311" type="curve" smooth="yes"/>
      <point x="699" y="1102" type="line" smooth="no"/>
      <point x="862" y="1311" type="line" smooth="yes"/>
      <point x="867" y="1319"/>
      <point x="877" y="1320"/>
      <point x="885" y="1320" type="curve" smooth="yes"/>
      <point x="903" y="1320"/>
      <point x="922" y="1306"/>
      <point x="922" y="1290" type="curve" smooth="yes"/>
      <point x="922" y="1285"/>
      <point x="920" y="1278"/>
      <point x="915" y="1273" type="curve" smooth="no"/>
      <point x="731" y="990" type="line" smooth="yes"/>
      <point x="726" y="982"/>
      <point x="712" y="979"/>
    </contour>
  </outline>
</glyph>
<glyph name="tilde" format="1">
  <advance width="1240"/>
  <unicode hex="02dc"/>
  <outline>
    <contour>
      <point x="533" y="1155" type="curve" smooth="yes"/>
      <point x="538" y="1155"/>
      <point x="543" y="1154"/>
      <point x="549" y="1153" type="curve" smooth="yes"/>
      <point x="619" y="1140"/>
      <point x="739" y="1056"/>
      <point x="781" y="1056" type="curve" smooth="yes"/>
      <point x="812" y="1056"/>
      <point x="828" y="1099"/>
      <point x="846" y="1132" type="curve" smooth="yes"/>
      <point x="849" y="1138"/>
      <point x="856" y="1140"/>
      <point x="863" y="1140" type="curve" smooth="yes"/>
      <point x="884" y="1140"/>
      <point x="915" y="1121"/>
      <point x="911" y="1102" type="curve" smooth="no"/>
      <point x="891" y="1050"/>
      <point x="853" y="977"/>
      <point x="785" y="977" type="curve" smooth="yes"/>
      <point x="777" y="977"/>
      <point x="767" y="979"/>
      <point x="758" y="981" type="curve" smooth="yes"/>
      <point x="680" y="1001"/>
      <point x="597" y="1062"/>
      <point x="544" y="1074" type="curve" smooth="yes"/>
      <point x="541" y="1075"/>
      <point x="538" y="1075"/>
      <point x="535" y="1075" type="curve" smooth="yes"/>
      <point x="509" y="1075"/>
      <point x="490" y="1049"/>
      <point x="472" y="1007" type="curve" smooth="yes"/>
      <point x="468" y="999"/>
      <point x="460" y="995"/>
      <point x="450" y="995" type="curve" smooth="yes"/>
      <point x="432" y="995"/>
      <point x="409" y="1007"/>
      <point x="409" y="1023" type="curve" smooth="yes"/>
      <point x="409" y="1081"/>
      <point x="472" y="1155"/>
    </contour>
  </outline>
</glyph>
<glyph name="uni030F" format="1">
  <advance width="1240"/>
  <unicode hex="030f"/>
  <outline>
    <contour>
      <point x="314" y="1144" type="curve" smooth="yes"/>
      <point x="636" y="910" type="line" smooth="yes"/>
      <point x="639" y="907"/>
      <point x="643" y="906"/>
      <point x="647" y="906" type="curve" smooth="yes"/>
      <point x="659" y="906"/>
      <point x="670" y="916"/>
      <point x="670" y="928" type="curve" smooth="yes"/>
      <point x="670" y="933"/>
      <point x="669" y="938"/>
      <point x="664" y="943" type="curve" smooth="yes"/>
      <point x="393" y="1219" type="line" smooth="yes"/>
      <point x="383" y="1229"/>
      <point x="372" y="1233"/>
      <point x="361" y="1233" type="curve" smooth="yes"/>
      <point x="330" y="1233"/>
      <point x="300" y="1200"/>
      <point x="300" y="1172" type="curve" smooth="yes"/>
      <point x="300" y="1162"/>
      <point x="304" y="1151"/>
    </contour>
    <contour>
      <point x="624" y="1164" type="curve" smooth="no"/>
      <point x="906" y="910" type="line" smooth="yes"/>
      <point x="909" y="907"/>
      <point x="913" y="906"/>
      <point x="917" y="906" type="curve" smooth="yes"/>
      <point x="929" y="906"/>
      <point x="940" y="916"/>
      <point x="940" y="928" type="curve" smooth="yes"/>
      <point x="940" y="933"/>
      <point x="939" y="938"/>
      <point x="934" y="943" type="curve" smooth="yes"/>
      <point x="703" y="1239" type="line" smooth="no"/>
      <point x="693" y="1249"/>
      <point x="682" y="1253"/>
      <point x="671" y="1253" type="curve" smooth="yes"/>
      <point x="640" y="1253"/>
      <point x="610" y="1220"/>
      <point x="610" y="1192" type="curve" smooth="yes"/>
      <point x="610" y="1182"/>
      <point x="614" y="1171"/>
    </contour>
  </outline>
</glyph>
<glyph name="endash" format="1">
  <advance width="1240"/>
  <unicode hex="2013"/>
  <outline>
    <contour>
      <point x="958" y="503" type="line" smooth="yes"/>
      <point x="988" y="503"/>
      <point x="1003" y="482"/>
      <point x="1003" y="460" type="curve" smooth="yes"/>
      <point x="1003" y="439"/>
      <point x="988" y="417"/>
      <point x="958" y="417" type="curve" smooth="yes"/>
      <point x="283" y="417" type="line" smooth="yes"/>
      <point x="253" y="417"/>
      <point x="238" y="439"/>
      <point x="238" y="460" type="curve" smooth="yes"/>
      <point x="238" y="482"/>
      <point x="253" y="503"/>
      <point x="283" y="503" type="curve" smooth="yes"/>
    </contour>
  </outline>
</glyph>
<glyph name="emdash" format="1">
  <advance width="1240"/>
  <unicode hex="2014"/>
  <outline>
    <contour>
      <point x="1042" y="533" type="line" smooth="yes"/>
      <point x="1072" y="533"/>
      <point x="1087" y="512"/>
      <point x="1087" y="490" type="curve" smooth="yes"/>
      <point x="1087" y="469"/>
      <point x="1072" y="447"/>
      <point x="1042" y="447" type="curve" smooth="yes"/>
      <point x="199" y="447" type="line" smooth="yes"/>
      <point x="169" y="447"/>
      <point x="154" y="469"/>
      <point x="154" y="490" type="curve" smooth="yes"/>
      <point x="154" y="512"/>
      <point x="169" y="533"/>
      <point x="199" y="533" type="curve" smooth="yes"/>
    </contour>
  </outline>
</glyph>
<glyph name="quotedblright" format="1">
  <advance width="1240"/>
  <unicode hex="201d"/>
  <outline>
    <contour>
      <point x="465" y="1187" type="curve" smooth="yes"/>
      <point x="525" y="1187"/>
      <point x="577" y="1146"/>
      <point x="577" y="1066" type="curve" smooth="yes"/>
      <point x="577" y="950"/>
      <point x="474" y="817"/>
      <point x="392" y="776" type="curve" smooth="yes"/>
      <point x="389" y="774"/>
      <point x="385" y="774"/>
      <point x="382" y="774" type="curve" smooth="yes"/>
      <point x="368" y="774"/>
      <point x="354" y="787"/>
      <point x="354" y="801" type="curve" smooth="yes"/>
      <point x="354" y="808"/>
      <point x="358" y="816"/>
      <point x="366" y="822" type="curve" smooth="yes"/>
      <point x="409" y="853"/>
      <point x="475" y="937"/>
      <point x="475" y="999" type="curve" smooth="no"/>
      <point x="416" y="999"/>
      <point x="367" y="1027"/>
      <point x="367" y="1092" type="curve" smooth="yes"/>
      <point x="367" y="1156"/>
      <point x="418" y="1187"/>
    </contour>
    <contour>
      <point x="761" y="1187" type="curve" smooth="yes"/>
      <point x="821" y="1187"/>
      <point x="873" y="1146"/>
      <point x="873" y="1066" type="curve" smooth="yes"/>
      <point x="873" y="950"/>
      <point x="770" y="817"/>
      <point x="688" y="776" type="curve" smooth="yes"/>
      <point x="685" y="774"/>
      <point x="681" y="774"/>
      <point x="678" y="774" type="curve" smooth="yes"/>
      <point x="664" y="774"/>
      <point x="650" y="787"/>
      <point x="650" y="801" type="curve" smooth="yes"/>
      <point x="650" y="808"/>
      <point x="654" y="816"/>
      <point x="662" y="822" type="curve" smooth="yes"/>
      <point x="705" y="853"/>
      <point x="771" y="937"/>
      <point x="771" y="999" type="curve" smooth="no"/>
      <point x="712" y="999"/>
      <point x="663" y="1027"/>
      <point x="663" y="1092" type="curve" smooth="yes"/>
      <point x="663" y="1156"/>
      <point x="714" y="1187"/>
    </contour>
  </outline>
</glyph>
<glyph name="guilsinglright" format="1">
  <advance width="1240"/>
  <unicode hex="203a"/>
  <outline>
    <contour>
      <point x="345" y="834" type="curve" smooth="yes"/>
      <point x="949" y="575" type="line" smooth="yes"/>
      <point x="977" y="563"/>
      <point x="992" y="542"/>
      <point x="992" y="520" type="curve" smooth="yes"/>
      <point x="992" y="499"/>
      <point x="978" y="477"/>
      <point x="949" y="465" type="curve" smooth="yes"/>
      <point x="355" y="209" type="line" smooth="yes"/>
      <point x="348" y="206"/>
      <point x="341" y="205"/>
      <point x="335" y="205" type="curve" smooth="yes"/>
      <point x="311" y="205"/>
      <point x="292" y="224"/>
      <point x="292" y="245" type="curve" smooth="yes"/>
      <point x="292" y="260"/>
      <point x="301" y="275"/>
      <point x="325" y="285" type="curve" smooth="yes"/>
      <point x="873" y="519" type="line" smooth="no"/>
      <point x="316" y="753" type="line" smooth="yes"/>
      <point x="287" y="766"/>
      <point x="274" y="785"/>
      <point x="274" y="802" type="curve" smooth="yes"/>
      <point x="274" y="822"/>
      <point x="291" y="840"/>
      <point x="317" y="840" type="curve" smooth="yes"/>
      <point x="326" y="840"/>
      <point x="335" y="838"/>
    </contour>
  </outline>
</glyph>
<glyph name="Euro" format="1">
  <advance width="1240"/>
  <unicode hex="20ac"/>
  <outline>
    <contour>
      <point x="659" y="-17" type="curve" smooth="yes"/>
      <point x="402" y="-17"/>
      <point x="242" y="151"/>
      <point x="196" y="429" type="curve" smooth="no"/>
      <point x="117" y="429" type="line" smooth="yes"/>
      <point x="77" y="429"/>
      <point x="60" y="441"/>
      <point x="60" y="466" type="curve" smooth="yes"/>
      <point x="60" y="491"/>
      <point x="77" y="505"/>
      <point x="117" y="505" type="curve" smooth="yes"/>
      <point x="186" y="505" type="line" smooth="no"/>
      <point x="183" y="538"/>
      <point x="182" y="572"/>
      <point x="182" y="607" type="curve" smooth="yes"/>
      <point x="182" y="625"/>
      <point x="182" y="643"/>
      <point x="183" y="661" type="curve" smooth="no"/>
      <point x="117" y="661" type="line" smooth="yes"/>
      <point x="77" y="661"/>
      <point x="60" y="675"/>
      <point x="60" y="700" type="curve" smooth="yes"/>
      <point x="60" y="726"/>
      <point x="77" y="739"/>
      <point x="117" y="739" type="curve" smooth="yes"/>
      <point x="191" y="739" type="line" smooth="no"/>
      <point x="232" y="1012"/>
      <point x="401" y="1187"/>
      <point x="668" y="1187" type="curve" smooth="yes"/>
      <point x="827" y="1187"/>
      <point x="918" y="1113"/>
      <point x="972" y="1015" type="curve" smooth="no"/>
      <point x="972" y="1121" type="line" smooth="yes"/>
      <point x="972" y="1154"/>
      <point x="997" y="1171"/>
      <point x="1021" y="1171" type="curve" smooth="yes"/>
      <point x="1046" y="1171"/>
      <point x="1070" y="1154"/>
      <point x="1070" y="1120" type="curve" smooth="yes"/>
      <point x="1070" y="827" type="line" smooth="yes"/>
      <point x="1070" y="795"/>
      <point x="1047" y="780"/>
      <point x="1024" y="780" type="curve" smooth="yes"/>
      <point x="1000" y="780"/>
      <point x="985" y="797"/>
      <point x="980" y="827" type="curve" smooth="yes"/>
      <point x="949" y="991"/>
      <point x="850" y="1101"/>
      <point x="671" y="1101" type="curve" smooth="yes"/>
      <point x="442" y="1101"/>
      <point x="322" y="955"/>
      <point x="288" y="739" type="curve" smooth="no"/>
      <point x="489" y="739" type="line" smooth="yes"/>
      <point x="529" y="739"/>
      <point x="544" y="726"/>
      <point x="544" y="700" type="curve" smooth="yes"/>
      <point x="544" y="675"/>
      <point x="529" y="661"/>
      <point x="489" y="661" type="curve" smooth="yes"/>
      <point x="280" y="661" type="line" smooth="no"/>
      <point x="279" y="641"/>
      <point x="278" y="621"/>
      <point x="278" y="600" type="curve" smooth="yes"/>
      <point x="278" y="567"/>
      <point x="279" y="535"/>
      <point x="282" y="505" type="curve" smooth="no"/>
      <point x="489" y="505" type="line" smooth="yes"/>
      <point x="529" y="505"/>
      <point x="544" y="491"/>
      <point x="544" y="466" type="curve" smooth="yes"/>
      <point x="544" y="441"/>
      <point x="529" y="429"/>
      <point x="489" y="429" type="curve" smooth="yes"/>
      <point x="293" y="429" type="line" smooth="no"/>
      <point x="335" y="198"/>
      <point x="468" y="69"/>
      <point x="660" y="69" type="curve" smooth="yes"/>
      <point x="853" y="69"/>
      <point x="950" y="164"/>
      <point x="1016" y="356" type="curve" smooth="yes"/>
      <point x="1023" y="376"/>
      <point x="1037" y="384"/>
      <point x="1054" y="384" type="curve" smooth="yes"/>
      <point x="1077" y="384"/>
      <point x="1097" y="367"/>
      <point x="1097" y="347" type="curve" smooth="yes"/>
      <point x="1097" y="343"/>
      <point x="1096" y="340"/>
      <point x="1095" y="336" type="curve" smooth="yes"/>
      <point x="1040" y="173"/>
      <point x="949" y="-17"/>
    </contour>
  </outline>
</glyph>
<glyph name="trademark" format="1">
  <advance width="1240"/>
  <unicode hex="2122"/>
  <outline>
    <contour>
      <point x="893" y="618" type="curve" smooth="yes"/>
      <point x="893" y="639"/>
      <point x="900" y="656"/>
      <point x="919" y="656" type="curve" smooth="yes"/>
      <point x="970" y="656" type="line" smooth="no"/>
      <point x="970" y="999" type="line" smooth="no"/>
      <point x="848" y="748" type="line" smooth="no"/>
      <point x="844" y="734"/>
      <point x="831" y="721"/>
      <point x="813" y="721" type="curve" smooth="yes"/>
      <point x="799" y="721"/>
      <point x="784" y="732"/>
      <point x="780" y="745" type="curve" smooth="yes"/>
      <point x="667" y="1005" type="line" smooth="no"/>
      <point x="667" y="656" type="line" smooth="no"/>
      <point x="716" y="656" type="line" smooth="yes"/>
      <point x="735" y="656"/>
      <point x="743" y="639"/>
      <point x="743" y="618" type="curve" smooth="yes"/>
      <point x="743" y="599"/>
      <point x="733" y="582"/>
      <point x="715" y="582" type="curve" smooth="yes"/>
      <point x="532" y="582" type="line" smooth="yes"/>
      <point x="515" y="582"/>
      <point x="505" y="599"/>
      <point x="505" y="618" type="curve" smooth="yes"/>
      <point x="505" y="639"/>
      <point x="512" y="656"/>
      <point x="531" y="656" type="curve" smooth="yes"/>
      <point x="594" y="656" type="line" smooth="no"/>
      <point x="594" y="1099" type="line" smooth="no"/>
      <point x="551" y="1099" type="line" smooth="yes"/>
      <point x="532" y="1099"/>
      <point x="523" y="1116"/>
      <point x="523" y="1138" type="curve" smooth="yes"/>
      <point x="523" y="1156"/>
      <point x="533" y="1173"/>
      <point x="551" y="1173" type="curve" smooth="yes"/>
      <point x="646" y="1173" type="line" smooth="yes"/>
      <point x="660" y="1173"/>
      <point x="667" y="1163"/>
      <point x="671" y="1152" type="curve" smooth="yes"/>
      <point x="813" y="850" type="line" smooth="no"/>
      <point x="966" y="1155" type="line" smooth="no"/>
      <point x="973" y="1165"/>
      <point x="978" y="1173"/>
      <point x="991" y="1173" type="curve" smooth="yes"/>
      <point x="1083" y="1173" type="line" smooth="yes"/>
      <point x="1101" y="1173"/>
      <point x="1110" y="1156"/>
      <point x="1110" y="1138" type="curve" smooth="yes"/>
      <point x="1110" y="1116"/>
      <point x="1102" y="1099"/>
      <point x="1083" y="1099" type="curve" smooth="yes"/>
      <point x="1042" y="1099" type="line" smooth="no"/>
      <point x="1042" y="656" type="line" smooth="no"/>
      <point x="1104" y="656" type="line" smooth="yes"/>
      <point x="1123" y="656"/>
      <point x="1130" y="639"/>
      <point x="1130" y="618" type="curve" smooth="yes"/>
      <point x="1130" y="599"/>
      <point x="1121" y="582"/>
      <point x="1103" y="582" type="curve" smooth="yes"/>
      <point x="920" y="582" type="line" smooth="yes"/>
      <point x="903" y="582"/>
      <point x="893" y="599"/>
    </contour>
    <contour>
      <point x="102" y="937" type="curve" smooth="yes"/>
      <point x="85" y="937"/>
      <point x="64" y="951"/>
      <point x="64" y="971" type="curve" smooth="yes"/>
      <point x="70" y="1141" type="line" smooth="yes"/>
      <point x="71" y="1163"/>
      <point x="76" y="1173"/>
      <point x="92" y="1173" type="curve" smooth="yes"/>
      <point x="440" y="1173" type="line" smooth="yes"/>
      <point x="456" y="1173"/>
      <point x="463" y="1162"/>
      <point x="464" y="1141" type="curve" smooth="yes"/>
      <point x="469" y="971" type="line" smooth="yes"/>
      <point x="469" y="951"/>
      <point x="447" y="937"/>
      <point x="431" y="937" type="curve" smooth="yes"/>
      <point x="413" y="937"/>
      <point x="403" y="945"/>
      <point x="401" y="965" type="curve" smooth="yes"/>
      <point x="389" y="1098" type="line" smooth="no"/>
      <point x="307" y="1098" type="line" smooth="no"/>
      <point x="307" y="656" type="line" smooth="no"/>
      <point x="367" y="656" type="line" smooth="yes"/>
      <point x="386" y="656"/>
      <point x="393" y="639"/>
      <point x="393" y="618" type="curve" smooth="yes"/>
      <point x="393" y="599"/>
      <point x="384" y="582"/>
      <point x="366" y="582" type="curve" smooth="yes"/>
      <point x="163" y="582" type="line" smooth="yes"/>
      <point x="145" y="582"/>
      <point x="136" y="599"/>
      <point x="136" y="618" type="curve" smooth="yes"/>
      <point x="136" y="639"/>
      <point x="144" y="656"/>
      <point x="163" y="656" type="curve" smooth="yes"/>
      <point x="226" y="656" type="line" smooth="no"/>
      <point x="226" y="1098" type="line" smooth="no"/>
      <point x="143" y="1098" type="line" smooth="no"/>
      <point x="133" y="965" type="line" smooth="yes"/>
      <point x="131" y="945"/>
      <point x="119" y="937"/>
    </contour>
  </outline>
</glyph>
<glyph name="minus" format="1">
  <advance width="1240"/>
  <unicode hex="2212"/>
  <outline>
    <contour>
      <point x="898" y="503" type="line" smooth="yes"/>
      <point x="928" y="503"/>
      <point x="943" y="482"/>
      <point x="943" y="460" type="curve" smooth="yes"/>
      <point x="943" y="439"/>
      <point x="928" y="417"/>
      <point x="898" y="417" type="curve" smooth="yes"/>
      <point x="343" y="417" type="line" smooth="yes"/>
      <point x="313" y="417"/>
      <point x="298" y="439"/>
      <point x="298" y="460" type="curve" smooth="yes"/>
      <point x="298" y="482"/>
      <point x="313" y="503"/>
      <point x="343" y="503" type="curve" smooth="yes"/>
    </contour>
  </outline>
</glyph>
<glyph name="infinity" format="1">
  <advance width="1240"/>
  <unicode hex="221e"/>
  <outline>
    <contour>
      <point x="568" y="664" type="curve" smooth="no"/>
      <point x="503" y="694"/>
      <point x="387" y="768"/>
      <point x="331" y="768" type="curve" smooth="yes"/>
      <point x="264" y="768"/>
      <point x="230" y="715"/>
      <point x="230" y="663" type="curve" smooth="yes"/>
      <point x="230" y="611"/>
      <point x="264" y="559"/>
      <point x="331" y="559" type="curve" smooth="yes"/>
      <point x="387" y="559"/>
      <point x="503" y="635"/>
    </contour>
    <contour>
      <point x="672" y="664" type="curve" smooth="no"/>
      <point x="737" y="635"/>
      <point x="853" y="559"/>
      <point x="909" y="559" type="curve" smooth="yes"/>
      <point x="976" y="559"/>
      <point x="1010" y="611"/>
      <point x="1010" y="664" type="curve" smooth="yes"/>
      <point x="1010" y="716"/>
      <point x="977" y="768"/>
      <point x="909" y="768" type="curve" smooth="yes"/>
      <point x="853" y="768"/>
      <point x="737" y="694"/>
    </contour>
    <contour>
      <point x="620" y="585" type="curve" smooth="no"/>
      <point x="552" y="548"/>
      <point x="431" y="470"/>
      <point x="314" y="470" type="curve" smooth="yes"/>
      <point x="193" y="470"/>
      <point x="132" y="568"/>
      <point x="132" y="665" type="curve" smooth="yes"/>
      <point x="132" y="761"/>
      <point x="192" y="857"/>
      <point x="311" y="857" type="curve" smooth="yes"/>
      <point x="429" y="857"/>
      <point x="549" y="775"/>
      <point x="620" y="739" type="curve" smooth="no"/>
      <point x="691" y="775"/>
      <point x="811" y="857"/>
      <point x="929" y="857" type="curve" smooth="yes"/>
      <point x="1048" y="857"/>
      <point x="1108" y="761"/>
      <point x="1108" y="664" type="curve" smooth="yes"/>
      <point x="1108" y="567"/>
      <point x="1047" y="470"/>
      <point x="926" y="470" type="curve" smooth="yes"/>
      <point x="809" y="470"/>
      <point x="688" y="548"/>
    </contour>
  </outline>
</glyph>
<glyph name="lozenge" format="1">
  <advance width="1240"/>
  <unicode hex="25ca"/>
  <outline>
    <contour>
      <point x="435" y="611" type="line" smooth="no"/>
      <point x="617" y="111" type="line" smooth="no"/>
      <point x="805" y="611" type="line" smooth="no"/>
      <point x="623" y="1111" type="line" smooth="no"/>
    </contour>
    <contour>
      <point x="351" y="611" type="line" smooth="no"/>
      <point x="556" y="1134" type="line" smooth="yes"/>
      <point x="572" y="1176"/>
      <point x="600" y="1189"/>
      <point x="627" y="1189" type="curve" smooth="yes"/>
      <point x="652" y="1189"/>
      <point x="676" y="1181"/>
      <point x="692" y="1139" type="curve" smooth="yes"/>
      <point x="889" y="611" type="line" smooth="no"/>
      <point x="684" y="88" type="line" smooth="yes"/>
      <point x="668" y="46"/>
      <point x="640" y="33"/>
      <point x="613" y="33" type="curve" smooth="yes"/>
      <point x="588" y="33"/>
      <point x="564" y="41"/>
      <point x="548" y="83" type="curve" smooth="yes"/>
    </contour>
  </outline>
</glyph>
<glyph name="uniFB01" format="1">
  <advance width="1240"/>
  <unicode hex="fb01"/>
  <outline>
    <contour>
      <point x="960" y="1171" type="curve" smooth="yes"/>
      <point x="1006" y="1171"/>
      <point x="1042" y="1134"/>
      <point x="1042" y="1088" type="curve" smooth="yes"/>
      <point x="1042" y="1042"/>
      <point x="1006" y="1006"/>
      <point x="960" y="1006" type="curve" smooth="yes"/>
      <point x="914" y="1006"/>
      <point x="877" y="1042"/>
      <point x="877" y="1088" type="curve" smooth="yes"/>
      <point x="877" y="1134"/>
      <point x="914" y="1171"/>
    </contour>
    <contour>
      <point x="762" y="0" type="line" smooth="yes"/>
      <point x="731" y="0"/>
      <point x="716" y="22"/>
      <point x="716" y="43" type="curve" smooth="yes"/>
      <point x="716" y="63"/>
      <point x="730" y="82"/>
      <point x="758" y="82" type="curve" smooth="yes"/>
      <point x="924" y="82" type="line" smooth="no"/>
      <point x="924" y="684" type="line" smooth="no"/>
      <point x="341" y="684" type="line" smooth="no"/>
      <point x="342" y="82" type="line" smooth="no"/>
      <point x="564" y="82" type="line" smooth="yes"/>
      <point x="590" y="82"/>
      <point x="603" y="61"/>
      <point x="603" y="41" type="curve" smooth="yes"/>
      <point x="603" y="20"/>
      <point x="590" y="0"/>
      <point x="563" y="0" type="curve" smooth="yes"/>
      <point x="141" y="0" type="line" smooth="yes"/>
      <point x="110" y="0"/>
      <point x="95" y="21"/>
      <point x="95" y="42" type="curve" smooth="yes"/>
      <point x="95" y="62"/>
      <point x="109" y="82"/>
      <point x="137" y="82" type="curve" smooth="yes"/>
      <point x="245" y="82" type="line" smooth="no"/>
      <point x="245" y="684" type="line" smooth="no"/>
      <point x="153" y="684" type="line" smooth="yes"/>
      <point x="122" y="684"/>
      <point x="107" y="705"/>
      <point x="107" y="726" type="curve" smooth="yes"/>
      <point x="107" y="746"/>
      <point x="121" y="766"/>
      <point x="149" y="766" type="curve" smooth="yes"/>
      <point x="245" y="766" type="line" smooth="no"/>
      <point x="245" y="838" type="line" smooth="yes"/>
      <point x="245" y="1079"/>
      <point x="370" y="1188"/>
      <point x="644" y="1188" type="curve" smooth="yes"/>
      <point x="674" y="1188"/>
      <point x="701" y="1169"/>
      <point x="701" y="1137" type="curve" smooth="yes"/>
      <point x="701" y="1020" type="line" smooth="yes"/>
      <point x="701" y="982"/>
      <point x="676" y="964"/>
      <point x="652" y="964" type="curve" smooth="yes"/>
      <point x="628" y="964"/>
      <point x="605" y="981"/>
      <point x="605" y="1016" type="curve" smooth="yes"/>
      <point x="605" y="1109" type="line" smooth="no"/>
      <point x="372" y="1093"/>
      <point x="342" y="1018"/>
      <point x="342" y="832" type="curve" smooth="yes"/>
      <point x="342" y="766" type="line" smooth="no"/>
      <point x="973" y="766" type="line" smooth="yes"/>
      <point x="999" y="766"/>
      <point x="1020" y="762"/>
      <point x="1020" y="735" type="curve" smooth="yes"/>
      <point x="1020" y="82" type="line" smooth="no"/>
      <point x="1156" y="82" type="line" smooth="yes"/>
      <point x="1183" y="82"/>
      <point x="1196" y="61"/>
      <point x="1196" y="41" type="curve" smooth="yes"/>
      <point x="1196" y="20"/>
      <point x="1182" y="0"/>
      <point x="1155" y="0" type="curve" smooth="yes"/>
    </contour>
  </outline>
</glyph>
<glyph name="uniFB02" format="1">
  <advance width="1240"/>
  <unicode hex="fb02"/>
  <outline>
    <contour>
      <point x="1017" y="1140" type="curve" smooth="yes"/>
      <point x="1017" y="82" type="line" smooth="no"/>
      <point x="1120" y="82" type="line" smooth="yes"/>
      <point x="1146" y="82"/>
      <point x="1159" y="61"/>
      <point x="1159" y="41" type="curve" smooth="yes"/>
      <point x="1159" y="20"/>
      <point x="1146" y="0"/>
      <point x="1119" y="0" type="curve" smooth="yes"/>
      <point x="796" y="0" type="line" smooth="yes"/>
      <point x="765" y="0"/>
      <point x="750" y="21"/>
      <point x="750" y="42" type="curve" smooth="yes"/>
      <point x="750" y="62"/>
      <point x="764" y="82"/>
      <point x="792" y="82" type="curve" smooth="yes"/>
      <point x="921" y="82" type="line" smooth="no"/>
      <point x="921" y="1093" type="line" smooth="no"/>
      <point x="677" y="1093" type="line" smooth="yes"/>
      <point x="443" y="1093"/>
      <point x="378" y="1018"/>
      <point x="378" y="832" type="curve" smooth="yes"/>
      <point x="378" y="766" type="line" smooth="no"/>
      <point x="527" y="766" type="line" smooth="yes"/>
      <point x="554" y="766"/>
      <point x="567" y="745"/>
      <point x="567" y="725" type="curve" smooth="yes"/>
      <point x="567" y="704"/>
      <point x="553" y="684"/>
      <point x="526" y="684" type="curve" smooth="yes"/>
      <point x="377" y="684" type="line" smooth="no"/>
      <point x="378" y="82" type="line" smooth="no"/>
      <point x="580" y="82" type="line" smooth="yes"/>
      <point x="606" y="82"/>
      <point x="619" y="61"/>
      <point x="619" y="41" type="curve" smooth="yes"/>
      <point x="619" y="20"/>
      <point x="606" y="0"/>
      <point x="579" y="0" type="curve" smooth="yes"/>
      <point x="164" y="0" type="line" smooth="yes"/>
      <point x="133" y="0"/>
      <point x="118" y="21"/>
      <point x="118" y="42" type="curve" smooth="yes"/>
      <point x="118" y="62"/>
      <point x="132" y="82"/>
      <point x="160" y="82" type="curve" smooth="yes"/>
      <point x="281" y="82" type="line" smooth="no"/>
      <point x="281" y="684" type="line" smooth="no"/>
      <point x="189" y="684" type="line" smooth="yes"/>
      <point x="158" y="684"/>
      <point x="143" y="705"/>
      <point x="143" y="726" type="curve" smooth="yes"/>
      <point x="143" y="746"/>
      <point x="157" y="766"/>
      <point x="185" y="766" type="curve" smooth="yes"/>
      <point x="281" y="766" type="line" smooth="no"/>
      <point x="281" y="838" type="line" smooth="yes"/>
      <point x="281" y="1077"/>
      <point x="404" y="1172"/>
      <point x="675" y="1172" type="curve" smooth="yes"/>
      <point x="970" y="1172" type="line" smooth="yes"/>
      <point x="996" y="1172"/>
      <point x="1017" y="1167"/>
    </contour>
  </outline>
</glyph>
